<?xml version="1.0" encoding="utf-8"?>
<!-- Generator: Adobe Illustrator 23.0.6, SVG Export Plug-In . SVG Version: 6.00 Build 0)  -->
<svg version="1.1" id="Layer_1" xmlns="http://www.w3.org/2000/svg" xmlns:xlink="http://www.w3.org/1999/xlink" x="0px" y="0px"
	 viewBox="0 0 68 54" style="enable-background:new 0 0 68 54;" xml:space="preserve">
<style type="text/css">
	.st0{fill:url(#SVGID_1_);}
	.st1{fill:#2B55CF;}
	.st2{fill:url(#SVGID_2_);}
	.st3{fill:url(#SVGID_3_);}
	.st4{fill:url(#SVGID_4_);}
</style>
<g>
	
		<linearGradient id="SVGID_1_" gradientUnits="userSpaceOnUse" x1="-0.6571" y1="0.2733" x2="14.3771" y2="42.5125" gradientTransform="matrix(1 0 0 -1 0 56)">
		<stop  offset="0.177" style="stop-color:#00D5FF"/>
		<stop  offset="0.3061" style="stop-color:#06C1F4"/>
		<stop  offset="0.5718" style="stop-color:#148BD7"/>
		<stop  offset="0.9012" style="stop-color:#2842B0"/>
	</linearGradient>
	<path class="st0" d="M18.5,11.2h-6.1L0,43.2h5.8c0.6,0,1.1-0.2,1.5-0.5C7.8,42.3,8,42,8.2,41.6L15,22.2c0.2-0.6,0.5-1.2,0.7-2
		C15.9,19.5,18.5,11.2,18.5,11.2z"/>
	<path class="st1" d="M34.9,24.4v18.7h7.5l0-22.7c-1.4,0.1-2.8,0.2-4,0.4l-0.3,0c-0.9,0.1-1.7,0.5-2.3,1.2
		C35.2,22.7,34.9,23.5,34.9,24.4L34.9,24.4z"/>
	
		<linearGradient id="SVGID_2_" gradientUnits="userSpaceOnUse" x1="24.6614" y1="30.1668" x2="-9.879" y2="4.9166" gradientTransform="matrix(1 0 0 -1 0 56)">
		<stop  offset="0.3803" style="stop-color:#00D5FF"/>
		<stop  offset="0.4684" style="stop-color:#02CFFD"/>
		<stop  offset="0.5906" style="stop-color:#08BDF6"/>
		<stop  offset="0.7327" style="stop-color:#129FEB"/>
		<stop  offset="0.8885" style="stop-color:#2077DC"/>
		<stop  offset="1" style="stop-color:#2B55CF"/>
	</linearGradient>
	<path class="st2" d="M32.3,21.7c-0.5,0-0.8,0-1.7,0.2C17.9,24.9,6,33.3,0,43.2h6.4c0.7,0,1.5-0.3,1.9-0.8
		c7.7-11.1,18-17.1,22.6-19.5C32.2,22.1,32.2,21.8,32.3,21.7z"/>
	<path class="st1" d="M18.8,11.2h-6.5c0,0,1.3,0.4,1.8,1.6l9.9,28.8c0.2,0.5,0.5,0.9,0.9,1.2c0.4,0.3,0.9,0.4,1.6,0.4h5.7l-12-30.9
		c-0.1-0.3-0.3-0.6-0.6-0.8C19.5,11.3,19.2,11.2,18.8,11.2L18.8,11.2z"/>
	
		<radialGradient id="SVGID_3_" cx="-274.9086" cy="423.8649" r="6.800000e-02" gradientTransform="matrix(121.086 0 0 -121.086 33326.1953 51344.1758)" gradientUnits="userSpaceOnUse">
		<stop  offset="0" style="stop-color:#FFD215"/>
		<stop  offset="1" style="stop-color:#FF9B00"/>
	</radialGradient>
	<path class="st3" d="M42.3,20.4v-9.2h-7.5v9.2c0,0.1,0,0.2,0.1,0.3c0,0.1,0.1,0.2,0.2,0.3c0.1,0.1,0.2,0.1,0.3,0.2
		c0.1,0,0.2,0,0.3,0C37.9,20.8,40.5,20.5,42.3,20.4z"/>
	<path class="st1" d="M55.4,37.7l0-0.2l6-6.2c0.8-0.9,1.6-1.7,2.4-2.6c0.7-0.8,1.4-1.7,2-2.6c0.6-0.9,1-1.8,1.3-2.8
		c0.3-1,0.5-2.1,0.5-3.2c0-1.4-0.2-2.6-0.7-3.7c-0.5-1.1-1.2-2.1-2.1-2.9c-0.9-0.8-2-1.5-3.2-1.9c-1.3-0.5-2.7-0.7-4.3-0.7
		c-1.4,0-2.8,0.2-4.1,0.6c-1.2,0.4-2.4,1-3.4,1.8c-1,0.8-1.8,1.8-2.5,2.9c-0.6,1.1-1.1,2.5-1.3,4c1.2-0.1,3.2-0.1,4.6-0.1
		c1.1,0,2.1-0.6,2.6-1.6c0,0,0,0,0,0c0.3-0.5,0.7-0.9,1.1-1.2c0.7-0.5,1.5-0.8,2.6-0.8c1.2,0,2.2,0.3,2.8,1c0.6,0.7,0.9,1.7,0.9,2.9
		c0,0.7-0.1,1.5-0.3,2.2c-0.2,0.7-0.5,1.4-0.9,2.1c-0.4,0.7-0.9,1.5-1.4,2.1c-0.6,0.8-1.3,1.5-2.1,2.3l-9.2,9.3
		c-0.4,0.4-0.7,0.8-0.9,1.3c-0.2,0.4-0.3,0.9-0.3,1.4v2.2h11.6L55.4,37.7z"/>
	
		<linearGradient id="SVGID_4_" gradientUnits="userSpaceOnUse" x1="61.8093" y1="15.8958" x2="51.7271" y2="15.9133" gradientTransform="matrix(1 0 0 -1 0 56)">
		<stop  offset="0.1024" style="stop-color:#2B55CF"/>
		<stop  offset="0.2545" style="stop-color:#2A50C8"/>
		<stop  offset="0.6249" style="stop-color:#2948BC"/>
		<stop  offset="1" style="stop-color:#2945B8"/>
	</linearGradient>
	<path class="st4" d="M67.4,37.6c-0.4-0.4-1-0.6-1.7-0.6h-1.3c0,0,0,0,0,0l-4.7,0c0,0-0.1,0-0.1,0c-0.2,0-0.4,0-0.6,0
		c-0.5,0-1,0.1-1.5,0.2c-0.1,0-0.1,0-0.2,0c-0.3,0-0.6,0.1-0.9,0.1c-0.6,0.1-1,0.1-1,0.1c-1.1,1.1-2.3,2.4-3.1,3.2
		c-0.4,0.4-0.7,1-0.7,1.6v0.8H68v-3.9C68,38.6,67.8,38,67.4,37.6z"/>
</g>
</svg>
