<?xml version="1.0" encoding="utf-8"?>
<!-- Generator: Adobe Illustrator 21.1.0, SVG Export Plug-In . SVG Version: 6.00 Build 0)  -->
<svg version="1.1" id="Layer_1" xmlns="http://www.w3.org/2000/svg" xmlns:xlink="http://www.w3.org/1999/xlink" x="0px" y="0px"
	 viewBox="0 0 68 54" style="enable-background:new 0 0 68 54;" xml:space="preserve">
<style type="text/css">
	.st0{fill:#FFE266;}
	.st1{fill-rule:evenodd;clip-rule:evenodd;fill:url(#SVGID_1_);}
	.st2{fill:url(#SVGID_2_);}
	.st3{fill-rule:evenodd;clip-rule:evenodd;fill:#3181AF;}
</style>
<path class="st0" d="M45,9.2l-2.2-0.4l2.1-1.8C45,6.9,45,6.7,44.9,6.6c-0.1-0.1-0.2-0.2-0.3-0.1L42.1,7l1.6-2.4
	c0.1-0.1,0.1-0.2,0-0.3c-0.1-0.1-0.2-0.1-0.3-0.1l-2.8,1.5l0.7-3.2c0-0.1,0-0.2-0.1-0.3c-0.1,0-0.2,0-0.3,0.1l-2.1,2.7l-0.7-3.6
	c0-0.1-0.1-0.2-0.2-0.2c-0.1,0-0.2,0.1-0.2,0.2l-0.7,3.6l-2.1-2.7c-0.1-0.1-0.2-0.1-0.3-0.1c-0.1,0.1-0.2,0.2-0.1,0.3l0.7,3.2
	l-2.8-1.5c-0.1-0.1-0.2,0-0.3,0.1c-0.1,0.1-0.1,0.2,0,0.3L33.6,7l-2.6-0.5c-0.1,0-0.2,0-0.3,0.1c-0.1,0.1,0,0.2,0.1,0.3l2.1,1.8
	l-2.2,0.4c-0.1,0-0.2,0.1-0.2,0.2c0,0.1,0,0.2,0.1,0.3l2.1,0.9l-1.8,0.9c-0.1,0-0.1,0.2-0.1,0.3c0,0.1,0.1,0.2,0.2,0.2l2.3,0.4
	l-1.7,1.7c-0.1,0.1-0.1,0.2,0,0.3c0.1,0.1,0.2,0.1,0.3,0.1l2.5-0.6l-0.7,1.7c0,0.1,0,0.2,0.1,0.3c0.1,0.1,0.2,0.1,0.3,0l2.4-1.2
	c0,0,3.1,0,3.1,0l2.4,1.2c0,0,0.1,0,0.1,0c0.1,0,0.1,0,0.2-0.1c0.1-0.1,0.1-0.2,0.1-0.3l-0.7-1.7l2.5,0.6c0.1,0,0.2,0,0.3-0.1
	c0.1-0.1,0-0.2,0-0.3l-1.7-1.7l2.3-0.4c0.1,0,0.2-0.1,0.2-0.2c0-0.1,0-0.2-0.1-0.3L43,10.6l2.1-0.9c0.1,0,0.2-0.1,0.1-0.3
	C45.2,9.3,45.1,9.2,45,9.2z"/>
<radialGradient id="SVGID_1_" cx="37.8643" cy="11.691" r="5.5256" gradientUnits="userSpaceOnUse">
	<stop  offset="0.3" style="stop-color:#FDEA65"/>
	<stop  offset="1" style="stop-color:#FCB431"/>
</radialGradient>
<path class="st1" d="M35.8,18.1c0-0.3-0.1-0.6-0.1-0.9c-0.4-1.6-0.8-3.2-1.6-4.8c-0.3-0.5-0.5-1-0.7-1.6c-0.2-1.2-0.1-2.3,0.6-3.3
	c0.7-1.1,1.6-1.8,2.9-2c1.5-0.3,2.8,0,3.9,1C41.6,7.1,42.1,8,42.3,9c0.2,1.1,0,2.1-0.5,3c-0.4,0.7-0.8,1.4-1.1,2.3
	c-0.2,0.6-0.2,0.8-0.5,1.7c0,0.1-0.1,0.1-0.1,0.1c-1.3,0.3-2.4,0.9-3.6,1.6C36.3,17.8,36.1,17.9,35.8,18.1z"/>
<radialGradient id="SVGID_2_" cx="37.7037" cy="22.3939" r="41.5005" gradientUnits="userSpaceOnUse">
	<stop  offset="0" style="stop-color:#3FA9D0"/>
	<stop  offset="1" style="stop-color:#183A74"/>
</radialGradient>
<path class="st2" d="M54.1,46.6L61.7,35c2.7-4.2,4.1-7.7,4.1-10.5c0-3.1-1.1-5.5-3.2-7.2c-2-1.6-5.4-2.5-8.9-2.6l0,0
	c-0.1,0-0.2,0-0.3,0c-0.1,0-0.2,0-0.2,0l0,0C43.4,14.9,33,20.9,24,28.1l-4.5-12.9H13L0,52.8h7.3c0,0,5.3-7.1,13.1-14.7l4.8,14.7h7.3
	l-6.8-19.5c2.8-2.3,5.7-4.6,8.8-6.5v26h6.6V23.2c4.2-1.9,8.5-3,12.8-2.9c3.4,0,5,1.4,5,4.2c0,2.4-1.2,5.3-3.5,8.7L43.7,50.5v1.9H68
	v-5.8H54.1z M11.7,39.4l4.6-14.1l2.4,7.4C16.2,35,13.8,37.3,11.7,39.4z"/>
<path class="st3" d="M35.8,18.1c0,0.1,0,0.1,0.1,0.2c1.4-0.8,2.9-1.5,4.3-2.2c0-0.1,0-0.1,0.1-0.2c0-0.1,0-0.1,0.1-0.2h-5
	c0.1,0.5,0.2,1,0.3,1.5C35.7,17.5,35.7,17.8,35.8,18.1z"/>
</svg>
