<?xml version="1.0" encoding="utf-8"?>
<!-- Generator: Adobe Illustrator 21.1.0, SVG Export Plug-In . SVG Version: 6.00 Build 0)  -->
<svg version="1.1" id="Layer_1" xmlns="http://www.w3.org/2000/svg" xmlns:xlink="http://www.w3.org/1999/xlink" x="0px" y="0px"
	 viewBox="0 0 300 52" style="enable-background:new 0 0 300 52;" xml:space="preserve">
<style type="text/css">
	.st0{fill:#FFFFFF;}
</style>
<g>
	<g>
		<path class="st0" d="M46.7,0.4h9.3v38.8c0,1.3,0.3,2.4,1,3.1c0.6,0.7,1.6,1.1,2.8,1.1c0.6,0,1.2-0.1,1.8-0.3
			c0.7-0.2,1.3-0.4,1.9-0.7l1.2,7c-1.2,0.6-2.7,1.1-4.4,1.4c-1.7,0.3-3.2,0.5-4.5,0.5c-2.9,0-5.1-0.8-6.7-2.3
			c-1.6-1.5-2.4-3.7-2.4-6.6V0.4z"/>
		<path class="st0" d="M66.8,0.4h9.3v38.8c0,1.3,0.3,2.4,1,3.1c0.6,0.7,1.6,1.1,2.8,1.1c0.6,0,1.2-0.1,1.8-0.3
			c0.7-0.2,1.3-0.4,1.9-0.7l1.2,7c-1.2,0.6-2.7,1.1-4.4,1.4c-1.7,0.3-3.2,0.5-4.5,0.5c-2.9,0-5.1-0.8-6.7-2.3
			c-1.6-1.5-2.4-3.7-2.4-6.6V0.4z"/>
		<path class="st0" d="M103.8,51.6c-2.9,0-5.5-0.5-7.9-1.5c-2.3-1-4.4-2.3-6-4c-1.7-1.7-2.9-3.7-3.8-5.9c-0.9-2.3-1.3-4.6-1.3-7.1
			c0-2.6,0.4-5,1.3-7.3c0.9-2.3,2.1-4.3,3.8-6c1.7-1.7,3.7-3.1,6-4.1c2.4-1,5-1.5,8-1.5c2.9,0,5.6,0.5,7.9,1.5
			c2.3,1,4.3,2.4,5.9,4.1c1.6,1.7,2.9,3.7,3.7,5.9c0.9,2.3,1.3,4.6,1.3,7c0,0.6,0,1.2,0,1.7c0,0.6-0.1,1-0.2,1.4h-28
			c0.1,1.4,0.5,2.7,1,3.8c0.6,1.1,1.3,2,2.1,2.8c0.9,0.8,1.9,1.4,3,1.8s2.3,0.6,3.5,0.6c1.8,0,3.6-0.4,5.2-1.3
			c1.6-0.9,2.8-2.1,3.3-3.6l7.9,2.2c-1.3,2.8-3.5,5-6.4,6.8C111.4,50.7,107.9,51.6,103.8,51.6z M113.2,29.7c-0.2-2.7-1.2-4.9-3-6.5
			c-1.8-1.6-3.9-2.5-6.5-2.5c-1.2,0-2.4,0.2-3.5,0.7c-1.1,0.4-2,1-2.9,1.8c-0.8,0.8-1.5,1.7-2,2.8c-0.5,1.1-0.8,2.3-0.9,3.7H113.2z"
			/>
		<path class="st0" d="M160.3,50.9h-9.3V30.6c0-2.9-0.5-5-1.5-6.4c-1-1.3-2.4-2-4.2-2c-0.9,0-1.9,0.2-2.8,0.6
			c-1,0.4-1.9,0.9-2.7,1.6c-0.9,0.7-1.6,1.5-2.3,2.4c-0.7,0.9-1.2,1.9-1.5,3v21.1h-9.3V14.7h8.4v6.7c1.3-2.3,3.3-4.1,5.8-5.4
			c2.5-1.3,5.4-1.9,8.6-1.9c2.3,0,4.1,0.4,5.5,1.2c1.4,0.8,2.5,1.9,3.3,3.2c0.8,1.3,1.3,2.9,1.6,4.6c0.3,1.7,0.4,3.4,0.4,5.2V50.9z"
			/>
		<path class="st0" d="M174.3,6.4v44.5h-2.4v-49h1.8l36.1,45.2V1.8h2.4v49h-2.3L174.3,6.4z"/>
		<path class="st0" d="M223.6,50.9v-49h2.4v46.8h30v2.2H223.6z"/>
		<path class="st0" d="M265.9,50.9v-49H286c2,0,3.9,0.4,5.6,1.3c1.7,0.9,3.2,2,4.4,3.4c1.2,1.4,2.2,3,2.9,4.8
			c0.7,1.8,1.1,3.6,1.1,5.5c0,1.9-0.3,3.8-1,5.6c-0.7,1.8-1.6,3.4-2.8,4.8c-1.2,1.4-2.6,2.5-4.3,3.4c-1.7,0.9-3.5,1.3-5.5,1.3h-18.1
			v18.9H265.9z M268.3,29.7h18c1.7,0,3.3-0.4,4.7-1.1c1.4-0.7,2.6-1.7,3.5-2.9c1-1.2,1.7-2.6,2.2-4.1c0.5-1.5,0.8-3.1,0.8-4.7
			c0-1.7-0.3-3.3-0.9-4.8c-0.6-1.5-1.5-2.9-2.5-4.1c-1.1-1.2-2.3-2.1-3.7-2.8C289,4.4,287.5,4,285.9,4h-17.6V29.7z"/>
	</g>
	<path class="st0" d="M44.5,10.5c-4.1,2.3-8.1,4.8-11.9,7.4c0,0,0,0,0,0v0h0L26.5,0.5h-8.9L0.6,49.7L0,51.3h9.9c0,0,0.1-0.1,0.2-0.3
		c4.9-7.6,10.7-14.7,17-21.2l7.1,21.5h9.9L34.3,23c3.3-2.9,6.6-5.6,10.2-8.1V10.5z M16.5,31.2l5.6-17.1l3.1,9.4
		C22.2,26,19.3,28.5,16.5,31.2z"/>
</g>
</svg>
