<?xml version="1.0" encoding="utf-8"?>
<!-- Generator: Adobe Illustrator 17.0.0, SVG Export Plug-In . SVG Version: 6.00 Build 0)  -->
<!DOCTYPE svg PUBLIC "-//W3C//DTD SVG 1.1//EN" "http://www.w3.org/Graphics/SVG/1.1/DTD/svg11.dtd">
<svg version="1.1" id="Layer_1" xmlns="http://www.w3.org/2000/svg" xmlns:xlink="http://www.w3.org/1999/xlink" x="0px" y="0px"
	 width="360px" height="216px" viewBox="0 0 360 216" enable-background="new 0 0 360 216" xml:space="preserve" fill="#C32032">
<g>
	<g>
		<path d="M80.585,23.592h-1.183c-0.065,1.379-0.789,1.971-2.167,1.971c-2.762,0-7.229-3.352-11.961-3.352
			c-13.472,0-21.617,13.274-21.617,24.971c0,11.764,7.752,23.395,20.764,23.395c7.885,0,10.842-3.746,12.944-3.746
			c1.38,0,2.169,1.709,2.431,2.693h0.986v-16.1h-0.986l-0.394,2.234c-0.919,5.322-5.849,13.734-14.324,13.734
			c-7.492,0-10.382-7.029-10.382-22.998c0-16.758,3.941-23,10.578-23c7.492,0,13.077,9.002,14.128,15.703h1.183V23.592z"/>
		<path d="M102.961,61.811c-0.129,3.437-2.073,6.549-5.121,6.549c-4.406,0-4.602-4.02-4.602-7.391c0-3.436,0.39-5.703,4.602-6.156
			l5.121-0.52V61.811z M116.441,63.951h-1.166c0,1.686-0.715,3.629-2.269,3.629c-1.168,0-1.491-1.23-1.491-3.24V49.432
			c0-7.387-6.937-9.201-13.608-9.201c-6.483,0-11.215,3.174-11.215,6.805c0,2.268,1.297,4.211,4.215,4.211
			c2.461,0,3.951-1.619,3.951-3.887c0-3.113-3.239-2.918-3.305-4.02c-0.064-1.426,3.693-1.943,5.899-1.943
			c4.858,0,5.508,2.396,5.508,6.287v5.441l-6.351,0.52c-5.899,0.453-12.316,2.01-12.316,8.75c0,5.639,5.056,7.906,10.046,7.906
			c2.53,0,7.002-0.971,8.686-4.082c1.167,2.723,3.565,4.082,6.483,4.082C113.72,70.301,116.441,67.775,116.441,63.951"/>
		<path d="M116.831,69.523h19.379v-1.164h-5.963V51.83c0-4.988,1.554-8.49,5.639-10.305h0.261c-1.103,1.166-1.558,2.203-1.558,3.826
			c0,2.525,1.881,4.211,4.408,4.211c3.11,0,4.926-2.268,4.926-4.732c0-3.111-2.074-4.99-5.12-4.99c-4.147,0-7.325,2.852-8.556,6.094
			h-0.13v-6.611c-1.36,1.686-6.158,1.686-8.813,1.686h-4.473v1.164h4.473v26.188h-4.473V69.523z"/>
		<path d="M144.958,69.523h17.241v-1.164h-3.823V50.6c0-3.305,3.239-8.037,6.869-8.037c1.881,0,3.825,0.777,3.825,5.314v20.482
			h-3.697v1.164h17.112v-1.164h-4.472V50.273c0-6.998-2.981-10.043-9.139-10.043c-4.344,0-8.62,2.267-10.369,6.027h-0.13v-6.936
			c-1.361,1.686-6.16,1.686-8.815,1.686h-4.604v1.164h4.474v26.188h-4.474V69.523z"/>
		<path d="M228.695,49.693c-0.064,7.971-1.749,8.424-4.082,8.424c-2.595,0-3.955-0.842-3.955-8.619c0-5.252,0.584-8.101,3.955-8.101
			C227.658,41.397,228.632,42.238,228.695,49.693 M217.419,71.857h10.176c6.481,0,8.62,0.582,8.62,4.537
			c0,4.73-5.834,9.141-12.378,9.141c-5.835,0-9.011-3.955-9.14-7.066C214.697,75.617,215.67,73.738,217.419,71.857 M242.048,43.145
			c0-2.268-2.465-3.434-4.409-3.434c-2.138,0-3.758,1.426-4.988,2.852c-1.881-1.361-4.472-2.332-8.102-2.332
			c-5.444,0-11.278,3.562-11.278,9.463c0,3.562,1.945,6.35,5.381,7.906v0.129c-2.528,0.324-6.483,2.072-6.483,7.453
			c0,3.24,1.491,5.703,4.216,6.482v0.127c-2.595,0.715-5.576,3.307-5.576,6.418c0,4.797,5.639,8.49,12.834,8.49
			c9.009,0,14.906-6.092,14.906-13.998c0-6.287-3.109-9.139-9.463-9.01h-10.759c-1.619,0-3.823-0.064-3.823-1.816
			c0-1.617,2.787-3.369,5.248-3.369c0.714,0,1.426,0.195,2.138,0.389c0.779,0.26,1.624,0.391,2.66,0.391
			c5.573,0,11.536-3.176,11.536-9.334c0-2.074-0.972-4.99-2.786-6.547c1.165-1.166,1.749-2.592,4.276-2.916v0.131
			c-1.36,0.711-1.75,1.553-1.75,2.852c0,1.49,1.037,2.98,2.98,2.98C240.88,46.451,242.048,44.895,242.048,43.145"/>
		<path d="M243.085,69.523h17.889v-1.164H256.5V39.322c-1.36,1.686-6.157,1.686-8.814,1.686h-4.601v1.164h4.472v26.188h-4.472
			V69.523z"/>
		<path d="M247.409,30.943c0,2.566,2.053,4.619,4.619,4.619c2.568,0,4.619-2.053,4.619-4.619s-2.051-4.619-4.619-4.619
			C249.462,26.324,247.409,28.377,247.409,30.943"/>
		<path d="M270.663,52.672L270.52,47.1c0-4.344,1.879-5.703,4.085-5.703c3.109,0,4.082,2.139,4.082,5.703v5.572H270.663z
			 M270.52,53.84h17.888c-0.064-6.998-6.546-13.74-13.349-13.609c-7.65,0-14.26,6.611-14.26,15.359
			c0,8.428,6.156,14.711,14.453,14.711c7.97,0,11.925-4.924,13.351-11.342h-1.166c-1.427,6.029-5.185,9.789-10.241,9.789
			c-6.027,0-6.676-5.057-6.676-9.463V53.84z"/>
		<path d="M43,126.519h12.571v-1.167h-0.906c-3.498,0-4.86-0.907-4.86-6.156v-36.75h0.13l15.488,44.073h1.752l15.1-43.294h0.13
			v42.127h-5.573v1.167h20.545v-1.167h-4.862V82.057h4.862v-1.164h-15.62l-10.953,31.303h-0.128l-10.76-31.303H43.323v1.164h4.926
			v37.721c0,2.786-0.647,5.574-4.991,5.574H43V126.519z"/>
		<path d="M106.464,109.668v-5.574c0-4.342,1.881-5.703,4.083-5.703c3.113,0,4.084,2.139,4.084,5.703v5.574H106.464z
			 M106.464,110.834h17.89c-0.065-7-6.547-13.738-13.352-13.609c-7.647,0-14.258,6.609-14.258,15.359
			c0,8.426,6.156,14.712,14.453,14.712c7.972,0,11.927-4.926,13.352-11.341h-1.167c-1.424,6.027-5.186,9.787-10.241,9.787
			c-6.025,0-6.676-5.057-6.676-9.463V110.834z"/>
		<path d="M124.548,126.519h17.888v-1.167h-4.472V78.947c-1.167,1.945-4.732,1.945-9.334,1.945h-4.082v1.164h4.473v43.295h-4.473
			V126.519z"/>
		<path d="M143.602,126.519h17.888v-1.167h-4.472V78.947c-1.167,1.945-4.733,1.945-9.334,1.945h-4.082v1.164h4.473v43.295h-4.473
			V126.519z"/>
		<path d="M181.639,119.26c0,4.861-2.01,6.871-5.314,6.871c-3.306,0-5.313-2.01-5.313-6.871v-13.998
			c0-4.861,2.008-6.871,5.313-6.871c3.305,0,5.314,2.01,5.314,6.871V119.26z M191.749,112.26c0-8.879-6.869-15.035-15.425-15.035
			c-8.555,0-15.425,6.156-15.425,15.035s6.87,15.036,15.425,15.036C184.88,127.296,191.749,121.139,191.749,112.26"/>
		<path d="M191.5,126.519h17.24v-1.167h-3.825v-17.756c0-3.307,3.242-8.037,6.87-8.037c1.879,0,3.825,0.777,3.825,5.313v20.48
			h-3.695v1.167h17.11v-1.167h-4.472V107.27c0-7-2.981-10.045-9.137-10.045c-4.346,0-8.621,2.268-10.373,6.027h-0.129v-6.936
			c-1.362,1.686-6.155,1.686-8.813,1.686H191.5v1.166h4.47v26.184h-4.47V126.519z"/>
		<path d="M43.13,137.847h5.056v29.362c0,10.046,6.935,16.138,17.499,16.138c11.927,0,17.11-6.287,17.11-15.814v-24.24
			c0-3.758,1.037-5.445,3.371-5.445h1.686v-1.166H75.017v1.166h1.881c3.305,0,4.342,1.688,4.342,5.445v24.629
			c0,8.816-5.315,13.092-11.602,13.092c-9.461,0-11.342-6.352-11.342-14.649v-28.517h5.249v-1.166H43.13V137.847z"/>
		<path d="M85.3,182.31h17.24v-1.168h-3.824v-17.758c0-3.305,3.241-8.038,6.869-8.038c1.879,0,3.825,0.778,3.825,5.315v20.48h-3.695
			v1.168h17.11v-1.168h-4.472v-18.083c0-7-2.981-10.046-9.137-10.046c-4.346,0-8.62,2.27-10.373,6.029h-0.128v-6.937
			c-1.362,1.686-6.156,1.686-8.814,1.686H85.3v1.166h4.472v26.185H85.3V182.31z"/>
		<path d="M123.798,182.31h17.889v-1.168h-4.475v-29.036c-1.361,1.686-6.156,1.686-8.814,1.686h-4.6v1.166h4.47v26.185h-4.47V182.31
			z"/>
		<path d="M128.12,143.727c0,2.567,2.055,4.621,4.621,4.621c2.568,0,4.618-2.054,4.618-4.621c0-2.565-2.05-4.618-4.618-4.618
			C130.175,139.108,128.12,141.161,128.12,143.727"/>
		<path d="M154.843,183.085h1.749l9.594-22.683c1.619-3.632,2.98-5.381,4.47-5.445h0.584v-1.166h-10.111v1.166h1.232
			c1.879,0,2.979,0.714,2.979,2.398c0,1.039-0.323,2.465-1.101,4.278l-4.404,10.372l-7.585-17.048h3.888v-1.166h-16.267v1.166h2.786
			L154.843,183.085z"/>
		<path d="M178.89,165.456v-5.572c0-4.344,1.877-5.704,4.081-5.704c3.111,0,4.084,2.138,4.084,5.704v5.572H178.89z M178.89,166.623
			h17.887c-0.064-6.999-6.546-13.738-13.352-13.61c-7.646,0-14.26,6.611-14.26,15.361c0,8.426,6.159,14.711,14.453,14.711
			c7.973,0,11.928-4.922,13.352-11.34h-1.165c-1.426,6.027-5.186,9.787-10.239,9.787c-6.029,0-6.676-5.057-6.676-9.465V166.623z"/>
		<path d="M196.899,182.31h19.379v-1.168h-5.963v-16.527c0-4.99,1.556-8.49,5.639-10.305h0.259
			c-1.102,1.166-1.556,2.203-1.556,3.825c0,2.526,1.881,4.212,4.407,4.212c3.112,0,4.927-2.268,4.927-4.732
			c0-3.111-2.074-4.99-5.122-4.99c-4.146,0-7.321,2.852-8.554,6.093h-0.13v-6.611c-1.36,1.686-6.156,1.686-8.815,1.686h-4.471v1.166
			h4.471v26.185h-4.471V182.31z"/>
		<path d="M225.524,183.085h1.167c0.323-1.037,1.36-1.553,2.656-1.553c1.686,0,3.696,1.553,7.324,1.553
			c6.158,0,10.369-5.313,10.369-10.627c0-7.909-5.443-8.492-12.378-9.465c-3.63-0.519-5.897-1.1-5.897-3.951
			c0-3.048,2.657-4.862,6.155-4.862c4.862,0,7.455,3.825,9.074,8.037h1.037l-0.389-9.204h-0.972c0,0.778-0.777,1.426-2.008,1.426
			c-2.077,0-3.762-1.426-6.743-1.426c-6.481,0-9.657,5.511-9.657,9.657c0,8.362,6.353,9.075,11.278,9.657
			c4.669,0.584,6.611,1.037,6.611,4.02c0,3.434-2.852,5.574-6.352,5.574c-4.925,0-8.943-4.99-10.11-9.723h-1.167V183.085z"/>
		<path d="M248.06,182.31h17.889v-1.168h-4.47v-29.036c-1.36,1.686-6.159,1.686-8.815,1.686h-4.604v1.166h4.475v26.185h-4.475
			V182.31z"/>
		<path d="M252.387,143.727c0,2.567,2.05,4.621,4.618,4.621c2.566,0,4.621-2.054,4.621-4.621c0-2.565-2.055-4.618-4.621-4.618
			C254.436,139.108,252.387,141.161,252.387,143.727"/>
		<path d="M269.048,154.957v20.741c0,6.156,5.311,7.387,7.126,7.387c3.955,0,6.612-1.617,8.62-4.988l-0.842-0.453
			c-0.777,1.166-1.814,2.721-3.434,2.721c-1.686,0-2.527-1.23-2.527-3.369v-22.038h5.961v-1.166h-5.961v-13.934h-1.169
			c0,6.867-4.665,13.934-11.213,13.934v1.166H269.048z"/>
		<path d="M283.757,154.957h2.723l12.445,28.843l-0.389,2.592c-0.26,1.879-1.556,9.27-3.694,9.918v-0.195
			c0.258-0.906,0.323-1.621,0.323-2.203c0-2.205-1.556-3.889-4.278-3.889c-2.852,0-4.278,1.943-4.278,4.404
			c0,2.66,2.464,4.539,5.315,4.539c5.122,0,6.418-5.639,7.001-8.359l1.749-7.908l3.37-8.426l6.418-14.453
			c1.424-3.307,2.721-4.862,4.148-4.862h0.518v-1.166h-10.113v1.166h1.362c2.074,0,2.981,1.167,2.981,2.268
			c0,1.299-0.842,3.437-1.879,5.899l-3.76,8.881l-7.582-17.048h4.275v-1.166h-16.657V154.957z"/>
	</g>
	<path d="M192.089,52.487l-0.143-5.572c0-4.344,1.879-5.703,4.085-5.703c3.109,0,4.082,2.139,4.082,5.703v5.572H192.089z
		 M191.946,53.655h17.888c-0.064-6.998-6.546-13.74-13.349-13.609c-7.65,0-14.26,6.611-14.26,15.359
		c0,8.428,6.156,14.711,14.453,14.711c7.97,0,11.925-4.924,13.351-11.342h-1.166c-1.427,6.029-5.186,9.789-10.241,9.789
		c-6.027,0-6.676-5.057-6.676-9.463V53.655z"/>
</g>
</svg>
